<svg xmlns="http://www.w3.org/2000/svg" width="48" height="38" viewBox="0 0 48 38">
  <g id="noun-money-1754793" transform="translate(0 -5)">
    <g id="_31-Money" data-name="31-Money">
      <path id="Path_1" data-name="Path 1" d="M45,5H3A3,3,0,0,0,0,8V30a3,3,0,0,0,3,3H20V31H3a1,1,0,0,1-1-1V8A1,1,0,0,1,3,7H45a1,1,0,0,1,1,1V20h2V8A3,3,0,0,0,45,5Z"/>
      <path id="Path_2" data-name="Path 2" d="M9,28a1,1,0,0,0,1,1h5V27H10.917A6.017,6.017,0,0,0,6,22.083V15.917A6.017,6.017,0,0,0,10.917,11H15V9H10a1,1,0,0,0-1,1,4,4,0,0,1-4,4,1,1,0,0,0-1,1v8a1,1,0,0,0,1,1A4,4,0,0,1,9,28Z"/>
      <path id="Path_3" data-name="Path 3" d="M39,10a1,1,0,0,0-1-1H33v2h4.083A6.017,6.017,0,0,0,42,15.917V17h2V15a1,1,0,0,0-1-1A4,4,0,0,1,39,10Z"/>
      <rect id="Rectangle_1" data-name="Rectangle 1" width="2" height="2" transform="translate(4 9)"/>
      <rect id="Rectangle_2" data-name="Rectangle 2" width="2" height="2" transform="translate(42 9)"/>
      <rect id="Rectangle_3" data-name="Rectangle 3" width="2" height="2" transform="translate(4 27)"/>
      <path id="Path_4" data-name="Path 4" d="M24,11a8,8,0,0,1,6.635,3.528l1.657-1.12A10,10,0,1,0,17.72,26.782l1.257-1.554A8,8,0,0,1,24,11Z"/>
      <path id="Path_5" data-name="Path 5" d="M35,17A13,13,0,1,0,48,30,13,13,0,0,0,35,17Zm0,24A11,11,0,1,1,46,30,11,11,0,0,1,35,41Z"/>
      <path id="Path_6" data-name="Path 6" d="M37,25H36V23H34v2H33a2,2,0,0,0-2,2v2a2,2,0,0,0,2,2h4v2H33V32H31v1a2,2,0,0,0,2,2h1v2h2V35h1a2,2,0,0,0,2-2V31a2,2,0,0,0-2-2H33V27h4v1h2V27A2,2,0,0,0,37,25Z"/>
    </g>
  </g>
</svg>
