<svg xmlns="http://www.w3.org/2000/svg" width="137.333" height="815" viewBox="0 0 137.333 815">
  <g id="bg_home" transform="translate(2.333)">
    <rect id="Rectangle_1" data-name="Rectangle 1" width="135" height="135" transform="translate(0 541.333)" fill="#fff"/>
    <path id="Path_1" data-name="Path 1" d="M66.667,608.313-1,677.333V542H134.333Z" fill="#58d8f4"/>
    <path id="Path_2" data-name="Path 2" d="M-1,608.333H66.667V676L32.833,642.167Z" fill="#3a4276"/>
    <path id="Path_3" data-name="Path 3" d="M-1,541H66.667v67.667L32.833,574.833Z" fill="#3a4276"/>
    <rect id="Rectangle_2" data-name="Rectangle 2" width="135" height="135" transform="translate(-2.333)" fill="#ff356b"/>
    <rect id="Rectangle_3" data-name="Rectangle 3" width="67.667" height="67.667" transform="translate(-2.333)" fill="#ffc100"/>
    <rect id="Rectangle_4" data-name="Rectangle 4" width="67.667" height="67.667" transform="translate(-2.333 67.667)" fill="#ffc100"/>
    <rect id="Rectangle_5" data-name="Rectangle 5" width="67.5" height="67.5" transform="translate(65.167 67.5)" fill="#3a4276"/>
    <path id="Path_4" data-name="Path 4" d="M66.5,120C95.322,120,118,96.11,118,67.5S95.322,15,66.5,15,15,38.89,15,67.5,37.678,120,66.5,120Z" fill="#58d8f4" stroke="#fff" stroke-width="30"/>
    <rect id="Rectangle_6" data-name="Rectangle 6" width="133" height="136" transform="translate(0 270)" fill="#ff356b"/>
    <rect id="Rectangle_7" data-name="Rectangle 7" width="67.667" height="67.667" transform="translate(-2.333 338.333)" fill="#ffc100"/>
    <circle id="Ellipse_1" data-name="Ellipse 1" cx="51.3" cy="51.3" r="51.3" transform="translate(15 287)" fill="#58d8f4" stroke="#fff" stroke-width="30"/>
    <path id="Path_5" data-name="Path 5" d="M65,270h68V407H65Z" fill="#3a4276"/>
    <rect id="Rectangle_8" data-name="Rectangle 8" width="135" height="135.833" transform="translate(-2.333 135)" fill="#fff"/>
    <path id="Path_6" data-name="Path 6" d="M-2.333,135H65.333v67.667L31.5,168.833Z" fill="#ffc100"/>
    <path id="Path_7" data-name="Path 7" d="M65.333,202.5H-2.333V134.833L31.5,168.667Z" fill="#fff"/>
    <path id="Path_8" data-name="Path 8" d="M-2.333,202.5H65.333L30.147,237.687l-32.48,32.48Z" fill="#ff356b"/>
    <path id="Path_9" data-name="Path 9" d="M65.333,270.667H-2.333L31.5,236.833,65.333,203Z" fill="#fff"/>
    <path id="Path_10" data-name="Path 10" d="M98.917,169.167,132.667,135v68.333h-67.5Z" fill="#58d8f4"/>
    <rect id="Rectangle_9" data-name="Rectangle 9" width="135" height="135.833" transform="translate(-2.333 405.833)" fill="#fff"/>
    <path id="Path_11" data-name="Path 11" d="M99.917,507.5l33.75-34.167v68.334h-67.5Z" fill="#ff356b"/>
    <path id="Path_12" data-name="Path 12" d="M65.167,472.392l-67.5,69.275V405.833h135Z" fill="#ffc100"/>
    <rect id="Rectangle_10" data-name="Rectangle 10" width="133" height="136" transform="translate(-1 679)" fill="#fff"/>
    <path id="Path_13" data-name="Path 13" d="M-.5,677a66.007,66.007,0,0,1,47.023,19.77A68.019,68.019,0,0,1,66,744.5a68.019,68.019,0,0,1-19.477,47.73A66.007,66.007,0,0,1-.5,812V785.032A39.631,39.631,0,0,0,27.736,773.16a40.841,40.841,0,0,0,11.7-28.66,40.841,40.841,0,0,0-11.7-28.66A39.631,39.631,0,0,0-.5,703.968Z" fill="#58d8f4"/>
    <path id="Path_14" data-name="Path 14" d="M134,811a68.559,68.559,0,0,1-48.043-19.624,67,67,0,0,1,0-94.752A68.559,68.559,0,0,1,134,677V811Z" fill="#ff356b"/>
    <path id="Path_15" data-name="Path 15" d="M132.667,270.833h-67.5V202.5l33.75,34.167Z" fill="#3a4276"/>
    <path id="Path_16" data-name="Path 16" d="M98.667,340a34.167,34.167,0,1,1-68.333,0H98.667Z" fill="#ff356b"/>
  </g>
</svg>
