<svg xmlns="http://www.w3.org/2000/svg" width="559.998" height="559.996" viewBox="0 0 559.998 559.996">
  <g id="noun-exchange-1496599" transform="translate(-70.002)">
    <path id="Path_1" data-name="Path 1" d="M455,0A175.006,175.006,0,0,0,280,175v3.5a216.218,216.218,0,0,1,35,9.273V175A140,140,0,1,1,455,315H442.229a216.209,216.209,0,0,1,9.273,35H455A175,175,0,0,0,455,0Z"/>
    <path id="Path_2" data-name="Path 2" d="M367.5,385A17.5,17.5,0,1,1,350,367.5,17.5,17.5,0,0,1,367.5,385"/>
    <path id="Path_3" data-name="Path 3" d="M157.5,385A17.5,17.5,0,1,1,140,367.5,17.5,17.5,0,0,1,157.5,385"/>
    <path id="Path_4" data-name="Path 4" d="M232.57,445.9v26.6h24.852V445.9a41.12,41.12,0,0,0,21.176-9.8,35.007,35.007,0,0,0,0-48.3,68.763,68.763,0,0,0-27.125-13.824,47.65,47.65,0,0,1-16.1-7.527,11.031,11.031,0,0,1-3.5-8.574,12.77,12.77,0,0,1,3.5-9.449,15.239,15.239,0,0,1,10.852-3.152,12.088,12.088,0,0,1,10.324,4.551,20.99,20.99,0,0,1,4.2,13.824v4.9h26.6v-4.9A42.176,42.176,0,0,0,278.6,336a37.443,37.443,0,0,0-21.527-11.9V297.5h-24.5v26.949a38.678,38.678,0,0,0-17.5,9.8,33.071,33.071,0,0,0-9.1,23.977,31.665,31.665,0,0,0,9.973,24.324,67.52,67.52,0,0,0,27.3,13.648,40.24,40.24,0,0,1,15.4,7.527,11.722,11.722,0,0,1,0,17.5,21.347,21.347,0,0,1-13.473,3.672,19.6,19.6,0,0,1-13.125-4.9,15.58,15.58,0,0,1-4.551-12.25V402.5H202.82l-1.227,3.324v1.4l0,0a35,35,0,0,0,10.324,27.824A43.56,43.56,0,0,0,232.57,445.9Z"/>
    <path id="Path_5" data-name="Path 5" d="M245,210a174.991,174.991,0,1,0,87.5,23.443A174.978,174.978,0,0,0,245,210Zm0,315a140,140,0,1,1,99-41A140.013,140.013,0,0,1,245,525Z"/>
    <path id="Path_6" data-name="Path 6" d="M577.5,175A17.5,17.5,0,1,1,560,157.5,17.5,17.5,0,0,1,577.5,175"/>
    <path id="Path_7" data-name="Path 7" d="M367.5,175A17.5,17.5,0,1,1,350,157.5,17.5,17.5,0,0,1,367.5,175"/>
    <path id="Path_8" data-name="Path 8" d="M442.57,235.9v26.6h24.852V235.9a41.12,41.12,0,0,0,21.176-9.8,30.987,30.987,0,0,0,10.148-24.328,31.145,31.145,0,0,0-9.8-23.973,68.737,68.737,0,0,0-27.125-13.824,47.63,47.63,0,0,1-16.1-7.527,11.017,11.017,0,0,1-3.5-8.574,12.755,12.755,0,0,1,3.5-9.449,15.229,15.229,0,0,1,10.848-3.152,12.079,12.079,0,0,1,10.324,4.551,21.014,21.014,0,0,1,4.2,13.824v4.9h26.6l0-4.9A42.154,42.154,0,0,0,488.945,126a37.433,37.433,0,0,0-21.523-11.9V87.5H442.57v26.949a38.678,38.678,0,0,0-17.5,9.8,33.07,33.07,0,0,0-9.1,23.977,31.665,31.665,0,0,0,9.973,24.324,67.519,67.519,0,0,0,27.3,13.648,40.241,40.241,0,0,1,15.4,7.527,11.722,11.722,0,0,1,0,17.5,21.347,21.347,0,0,1-13.473,3.672,19.583,19.583,0,0,1-12.426-4.023,15.571,15.571,0,0,1-5.25-13.125V192.5H412.819l-1.227,3.324v1.4l0,0a35,35,0,0,0,10.324,27.824A43.561,43.561,0,0,0,442.569,235.9Z"/>
    <path id="Path_9" data-name="Path 9" d="M577.5,380.45a17.5,17.5,0,0,0-17.5,17.5c0,41.477-17.5,65.1-55.3,72.1l.875-20.125-68.074,35,64.75,41.125.875-21C562.273,497,595,459.376,595,397.432a17.5,17.5,0,0,0-17.5-16.977Z"/>
    <path id="Path_10" data-name="Path 10" d="M122.5,192.5A17.5,17.5,0,0,0,140,175c0-41.477,17.5-65.1,55.3-72.273l-.875,19.773,68.074-35L197.75,46.2V67.375C137.727,75.25,105,113.051,105,174.995a17.5,17.5,0,0,0,17.5,17.5Z"/>
  </g>
</svg>
