<svg xmlns="http://www.w3.org/2000/svg" width="503.987" height="247.352" viewBox="0 0 503.987 247.352">
  <g id="noun-team-186474" transform="translate(-98.001 -156.328)">
    <path id="Path_163" data-name="Path 163" d="M563.24,297.76c9.508,1.059,17.852,2.7,17.852,2.7-18.977-10.434-18.492-47.887-18.492-47.887,3.32-72.531-44.547-68.738-44.547-68.738l-.039.113-.035-.113s-47.867-3.793-44.547,68.738c0,0,.488,37.453-18.492,47.887,0,0,5.105-.352,11.938-.48a55.729,55.729,0,0,0-15.871,10.73A81.181,81.181,0,0,1,470.3,363.33a64.362,64.362,0,0,1-1.23,12.848c6.316-.062,13.188-.352,20.4-.352h57.086c30.613,0,55.43,5.41,55.43-25.207a55.423,55.423,0,0,0-38.746-52.859Zm-32.4,14.531-12.824,20.844L505.2,312.291c-9.312-2.109-16.516-6.457-19.414-11.82,7.516.656,13.883,2.031,15.535,4.738l-7.066-15.754c6.766,6.754,14.953,10.719,23.766,10.719,8.613,0,16.625-3.785,23.3-10.258l-4.93,10.258c1.644-2.723,7.852-3.457,15.133-3.27-1.148,6.969-9.363,12.824-20.676,15.387Zm23.984-66.746a69.763,69.763,0,0,1-6.867,25.859c-6.731,13.5-17.629,22.27-29.949,22.27-18.766,0-34.266-20.383-36.707-46.82,0,0,14.816-2.453,23.672-5.945,0,0,16.027-5.355,35.605-19.449.1-.074.191-.141.293-.211,0,0,.352.5.852,1.359,1.7,2.918,5.336,11.594-1.539,15.566l12.531,1.6h.23l2.289.426a39.706,39.706,0,0,1-.41,5.348Z"/>
    <path id="Path_164" data-name="Path 164" d="M253.41,308.27c.656-.711,1.332-1.4,2.012-2.09A56.83,56.83,0,0,0,218.836,288.1c-.23,10.383-15.613,18.766-34.57,18.766s-34.34-8.383-34.562-18.766A56.964,56.964,0,0,0,98,344.809c0,31.457,25.5,31.375,56.945,31.375H213.6c6.871,0,13.453,0,19.551-.32a64.846,64.846,0,0,1-1.164-12.539,81.21,81.21,0,0,1,21.422-55.055Z"/>
    <path id="Path_165" data-name="Path 165" d="M141.19,236.64c.035.41.066.816.1,1.227,2.75,31.09,20.945,55.109,42.973,55.109s40.23-24.02,42.973-55.109c.035-.41.066-.816.1-1.227.2-1.348.324-2.715.41-4.1.055-.945.09-1.9.09-2.863a48.612,48.612,0,0,0-.5-6.957c-3.18-22.035-21.258-38.914-43.074-38.914s-39.9,16.879-43.074,38.914a49.185,49.185,0,0,0-.5,6.957c0,.965.035,1.914.09,2.863.086,1.379.215,2.746.41,4.1Zm16.2-24.738s12.539,6.086,26.875,6.484c14.34-.391,26.875-6.484,26.875-6.484,9.094,3.586,4.781,29.141,4.781,29.141a18.427,18.427,0,0,1,6.047-2.828c-2.5,27.16-18.43,48.1-37.7,48.1s-35.207-20.938-37.7-48.1a18.53,18.53,0,0,1,6.047,2.832s-4.309-25.559,4.781-29.145Z"/>
    <path id="Path_166" data-name="Path 166" d="M395.59,290.43c-.293,13.352-20.074,24.125-44.441,24.125S307,303.782,306.708,290.43a73.227,73.227,0,0,0-66.484,72.906c0,40.242,32.457,40.344,72.609,40.344h76.621c40.152,0,72.609-.1,72.609-40.344A73.21,73.21,0,0,0,395.59,290.43Z"/>
    <path id="Path_167" data-name="Path 167" d="M295.76,224.25c.039.527.09,1.055.133,1.578,3.527,39.977,26.918,70.863,55.25,70.863s51.715-30.891,55.25-70.863c.051-.527.094-1.055.133-1.578.254-1.734.414-3.5.52-5.27.074-1.215.117-2.441.117-3.672a63.717,63.717,0,0,0-.633-8.949c-4.094-28.324-27.332-50.031-55.391-50.031s-51.289,21.7-55.391,50.031a61.961,61.961,0,0,0-.637,8.949c0,1.23.043,2.457.113,3.672.121,1.781.289,3.539.535,5.27Zm20.832-31.8s16.129,7.828,34.559,8.332c18.43-.5,34.559-8.332,34.559-8.332,11.688,4.609,6.148,37.465,6.148,37.469a23.631,23.631,0,0,1,7.773-3.641c-3.215,34.922-23.684,61.848-48.473,61.848s-45.266-26.926-48.484-61.848a23.6,23.6,0,0,1,7.773,3.641c-.008,0-5.543-32.859,6.145-37.469Z"/>
  </g>
</svg>
