<svg xmlns="http://www.w3.org/2000/svg" width="516.797" height="516.792" viewBox="0 0 516.797 516.792">
  <g id="noun-otp-4051175" transform="translate(-91.598 -21.6)">
    <path id="Path_1" data-name="Path 1" d="M596.09,100.35H372.14V68.26A46.72,46.72,0,0,0,325.468,21.6H138.258A46.707,46.707,0,0,0,91.6,68.26V491.72a46.72,46.72,0,0,0,46.66,46.672h187.21A46.72,46.72,0,0,0,372.14,491.72V321.83H596.09a12.31,12.31,0,0,0,12.3-12.3V112.645a12.31,12.31,0,0,0-12.3-12.3ZM325.47,513.79H138.26a22.086,22.086,0,0,1-22.051-22.063V459.649h231.33v32.078a22.1,22.1,0,0,1-22.063,22.063Zm22.062-78.75H116.2V68.26a22.072,22.072,0,0,1,22.051-22.051h187.21A22.086,22.086,0,0,1,347.526,68.26v32.09H182.646a12.31,12.31,0,0,0-12.3,12.3v196.88a12.31,12.31,0,0,0,12.3,12.3h56.6v56.6a12.3,12.3,0,0,0,21,8.7l65.3-65.3h21.977Zm236.25-137.81H320.462a12.3,12.3,0,0,0-8.7,3.605l-47.9,47.9v-39.2a12.31,12.31,0,0,0-12.3-12.3h-56.6V124.96h388.83Z"/>
    <path id="Path_2" data-name="Path 2" d="M462.75,236.93a12.291,12.291,0,0,0,16.8,4.5L495.2,232.4v18.066a12.305,12.305,0,0,0,24.61,0V232.4l15.641,9.031a12.3,12.3,0,0,0,12.3-21.3L532.1,211.09l15.648-9.035a12.3,12.3,0,0,0-12.3-21.3l-15.641,9.031V171.715a12.3,12.3,0,0,0-24.61,0v18.066l-15.641-9.031a12.3,12.3,0,1,0-12.3,21.3L482.9,211.09l-15.648,9.035a12.3,12.3,0,0,0-4.5,16.8Z"/>
    <path id="Path_3" data-name="Path 3" d="M344.62,185.25a12.3,12.3,0,0,0,4.5,16.8l15.648,9.035-15.648,9.035a12.3,12.3,0,0,0,12.3,21.305l15.641-9.031v18.066a12.3,12.3,0,1,0,24.61,0V232.4l15.641,9.031a12.3,12.3,0,0,0,12.3-21.3l-15.648-9.035,15.648-9.035a12.3,12.3,0,0,0-12.3-21.3l-15.641,9.031V171.715a12.3,12.3,0,1,0-24.61,0v18.066l-15.641-9.031a12.282,12.282,0,0,0-16.8,4.5Z"/>
    <path id="Path_4" data-name="Path 4" d="M316,185.25a12.273,12.273,0,0,0-16.8-4.5l-15.641,9.031V171.715a12.3,12.3,0,1,0-24.61,0v18.066L243.3,180.75A12.3,12.3,0,1,0,231,202.055l15.648,9.035L231,220.125a12.3,12.3,0,1,0,12.3,21.3l15.641-9.031v18.066a12.3,12.3,0,0,0,24.61,0V232.4L299.2,241.43a12.3,12.3,0,0,0,12.3-21.3l-15.648-9.035,15.648-9.035a12.3,12.3,0,0,0,4.5-16.8Z"/>
    <path id="Path_5" data-name="Path 5" d="M256.48,474.41H207.261a12.3,12.3,0,1,0,0,24.61H256.48a12.3,12.3,0,0,0,0-24.61Z"/>
    <path id="Path_6" data-name="Path 6" d="M207.27,85.586h49.219a12.305,12.305,0,0,0,0-24.61H207.27a12.305,12.305,0,0,0,0,24.61Z"/>
  </g>
</svg>
