<svg xmlns="http://www.w3.org/2000/svg" width="560.002" height="560.002" viewBox="0 0 560.002 560.002">
  <g id="noun-qr-1474709" transform="translate(-70)">
    <path id="Path_105" data-name="Path 105" d="M363.34,0h53.328V26.664H390V53.328H336.668V133.34H283.34V106.668H310v-80H363.34Z"/>
    <path id="Path_106" data-name="Path 106" d="M70,0V186.67H256.67V0ZM230,160H96.67V26.67H230Z"/>
    <path id="Path_107" data-name="Path 107" d="M443.34,0V186.67H630V0ZM603.33,160H470.01V26.67H603.34V160Z"/>
    <path id="Path_108" data-name="Path 108" d="M123.33,53.328h80v80h-80Z"/>
    <path id="Path_109" data-name="Path 109" d="M496.66,53.328h80v80h-80Z"/>
    <path id="Path_110" data-name="Path 110" d="M363.34,80H390v26.664H363.34Z"/>
    <path id="Path_111" data-name="Path 111" d="M390,106.67h26.664V213.34H390V160H363.336v26.672H336.664V133.344H390Z"/>
    <path id="Path_112" data-name="Path 112" d="M283.34,160H310v26.672h26.664V213.34H310v53.328h26.664V240H363.34V213.34H390v80H336.668V320H310V293.34H283.34V240H230V213.34h53.34Z"/>
    <path id="Path_113" data-name="Path 113" d="M123.33,213.34h53.328v26.672H123.33Z"/>
    <path id="Path_114" data-name="Path 114" d="M416.66,213.34H470V240H443.336v26.664H416.66Z"/>
    <path id="Path_115" data-name="Path 115" d="M496.66,213.34h26.672v26.672H496.66Z"/>
    <path id="Path_116" data-name="Path 116" d="M70,240h53.328v26.664H150v26.672H123.328V320H96.664V266.664H70Z"/>
    <path id="Path_117" data-name="Path 117" d="M176.67,240H230v26.664H203.334v26.672H230V320H176.67Z"/>
    <path id="Path_118" data-name="Path 118" d="M523.33,240h26.676v26.664H576.67v80H550.006V320H496.658v26.664H470V293.336H523.33Z"/>
    <path id="Path_119" data-name="Path 119" d="M230,266.66h26.664v26.672H230Z"/>
    <path id="Path_120" data-name="Path 120" d="M603.33,266.66H630v26.672H603.33Z"/>
    <path id="Path_121" data-name="Path 121" d="M256.67,293.34h26.668v53.328H230V320H256.67Z"/>
    <path id="Path_122" data-name="Path 122" d="M390,293.34h26.672V320H390Z"/>
    <path id="Path_123" data-name="Path 123" d="M70,320H96.664v26.672H70Z"/>
    <path id="Path_124" data-name="Path 124" d="M123.33,320h26.664v26.672H123.33Z"/>
    <path id="Path_125" data-name="Path 125" d="M336.66,320H390v26.664H363.332V400H336.66v53.328H310V400H283.332v-53.34H310v26.668H336.66Z"/>
    <path id="Path_126" data-name="Path 126" d="M416.66,320h26.672v26.672H416.66Z"/>
    <path id="Path_127" data-name="Path 127" d="M603.33,320H630v26.672H603.33Z"/>
    <path id="Path_128" data-name="Path 128" d="M390,346.66h26.672v53.328H390Z"/>
    <path id="Path_129" data-name="Path 129" d="M523.33,346.66H550v53.328H523.33Z"/>
    <path id="Path_130" data-name="Path 130" d="M576.67,346.66h26.664v26.664H576.67Z"/>
    <path id="Path_131" data-name="Path 131" d="M470,373.33h26.656V400h26.672V453.33h80v26.664H496.654v53.332H470V479.994H443.334V506.67H416.658v26.656h26.676V560H309.994V533.326h80V479.994h26.664V400H470Z"/>
    <path id="Path_132" data-name="Path 132" d="M70,373.33V560H256.67V373.33Zm160,160H96.67V400.01H230Z"/>
    <path id="Path_133" data-name="Path 133" d="M363.34,400H390v26.664H363.34Z"/>
    <path id="Path_134" data-name="Path 134" d="M550.01,400h53.32v26.664H550.01Z"/>
    <path id="Path_135" data-name="Path 135" d="M123.33,426.66h80v80h-80Z"/>
    <path id="Path_136" data-name="Path 136" d="M603.33,426.66H630v26.672H603.33Z"/>
    <path id="Path_137" data-name="Path 137" d="M283.34,453.33H310v26.664h26.664V506.67H283.34Z"/>
    <path id="Path_138" data-name="Path 138" d="M336.66,453.33h53.328v26.664H336.66Z"/>
    <path id="Path_139" data-name="Path 139" d="M550.01,506.67h26.664v26.664H550.01Z"/>
    <path id="Path_140" data-name="Path 140" d="M603.33,506.67H630v26.664H603.33Z"/>
    <path id="Path_141" data-name="Path 141" d="M496.66,533.33h26.672V560H496.66Z"/>
  </g>
</svg>
