<svg xmlns="http://www.w3.org/2000/svg" width="429.473" height="560.052" viewBox="0 0 429.473 560.052">
  <g id="noun-antivirus-encryption-324169" transform="translate(-135.265 0.048)">
    <path id="Path_1" data-name="Path 1" d="M555.4,74.5C418.81,74.5,357.75,3.828,357.19,3.172a9.637,9.637,0,0,0-14.379,0c-.562.75-60.969,71.332-198.21,71.332a9.363,9.363,0,0,0-9.336,9.336V261.98c0,97.473,43.789,190,117.17,247.7,29.6,23.246,61.527,40.055,94.953,49.949a9.293,9.293,0,0,0,5.227,0c33.426-9.9,65.355-26.7,94.953-49.949,73.383-57.7,117.17-150.22,117.17-247.6V83.85a9.366,9.366,0,0,0-9.336-9.336Zm-9.336,187.57c0,91.684-41.082,178.79-109.98,232.95-26.891,21.2-55.832,36.6-86.082,45.934-30.25-9.336-59.1-24.836-86.082-45.934-68.9-54.152-109.98-141.26-109.98-232.95V93.084C268.22,90.565,330.12,41.732,350.01,22.6,369.9,41.737,431.8,90.471,546.08,93.084Z"/>
    <path id="Path_2" data-name="Path 2" d="M344.77,74.6c-28.2,19.141-76.184,43.789-145.27,52.562a9.29,9.29,0,0,0-8.219,9.246v125.67c0,80.387,35.758,156.48,95.7,203.54a234.053,234.053,0,0,0,59.566,34.543,9.465,9.465,0,0,0,6.906,0,236.851,236.851,0,0,0,59.566-34.543c59.941-47.055,95.7-123.24,95.7-203.54V136.406a9.279,9.279,0,0,0-8.121-9.242c-69.09-8.777-117.17-33.426-145.27-52.562a9.434,9.434,0,0,0-10.551,0Zm145.27,69.93v117.45c0,74.691-33.145,145.27-88.6,188.88a221.652,221.652,0,0,1-51.445,30.531,221.609,221.609,0,0,1-51.445-30.531c-55.457-43.508-88.6-114.09-88.6-188.78V144.528C274.368,135,320.866,112.317,350,93.458c29.129,18.953,75.625,41.547,140.05,51.07Z"/>
    <path id="Path_3" data-name="Path 3" d="M303.32,233.22a46.679,46.679,0,0,0,14.566,33.8l-23.621,94.672a9.483,9.483,0,0,0,1.68,8.031,9.376,9.376,0,0,0,7.375,3.547h93.363a9.388,9.388,0,0,0,7.375-3.547,9.177,9.177,0,0,0,1.68-8.031L382.12,267.021a46.659,46.659,0,1,0-78.8-33.8Zm74.691,0A28.019,28.019,0,0,1,366.156,256a9.456,9.456,0,0,0-3.641,9.9l22.223,88.7H315.273L337.5,265.9a9.458,9.458,0,0,0-3.641-9.9,27.973,27.973,0,1,1,44.157-22.781Z"/>
  </g>
</svg>
