<svg xmlns="http://www.w3.org/2000/svg" width="419.991" height="297.5" viewBox="0 0 419.991 297.5">
  <path id="noun-top-up-4685272" d="M490,122.5H245A52.494,52.494,0,0,0,192.5,175v3.852a95.985,95.985,0,0,0,0,184.8V367.5A52.494,52.494,0,0,0,245,420H490a52.494,52.494,0,0,0,52.5-52.5V175A52.494,52.494,0,0,0,490,122.5ZM157.5,271.25a61.249,61.249,0,0,1,54.723-60.863A52.045,52.045,0,0,1,218.75,210a61.25,61.25,0,0,1,0,122.5,53.84,53.84,0,0,1-6.824-.422A61.148,61.148,0,0,1,157.5,271.25ZM490,385H245a17.5,17.5,0,0,1-17.5-17.5v-.387h.367a95.594,95.594,0,0,0,16.242-3.043c.613-.176,1.242-.3,1.871-.473a95.852,95.852,0,0,0,14.629-5.723c.684-.332,1.383-.648,2.047-1a96.088,96.088,0,0,0,12.984-8.086l1.941-1.453h0a97.016,97.016,0,0,0,11.2-10.184c.559-.594,1.086-1.191,1.629-1.75a97.361,97.361,0,0,0,9.258-12.109c.4-.629.77-1.277,1.172-1.926a96,96,0,0,0,7-13.914c.246-.578.422-1.191.648-1.75h0a94.636,94.636,0,0,0,4.586-15.66,7.2,7.2,0,0,1,.176-1.191,92.371,92.371,0,0,0,0-35,7.2,7.2,0,0,0-.176-1.191A94.645,94.645,0,0,0,308.488,237c-.227-.594-.422-1.191-.648-1.75h0a95.993,95.993,0,0,0-7-13.914c-.387-.648-.754-1.3-1.172-1.926a97.306,97.306,0,0,0-9.258-12.109c-.543-.613-1.086-1.207-1.629-1.75a97.121,97.121,0,0,0-11.2-10.184l-1.941-1.453h0a96.119,96.119,0,0,0-12.984-8.086c-.684-.352-1.363-.648-2.047-1a95.043,95.043,0,0,0-14.629-5.723c-.613-.176-1.242-.316-1.871-.473a95.617,95.617,0,0,0-16.242-3.047H227.5V175A17.5,17.5,0,0,1,245,157.5H490A17.5,17.5,0,0,1,507.5,175v35H463.75a61.25,61.25,0,0,0,0,122.5H507.5v35A17.5,17.5,0,0,1,490,385Zm17.5-87.5H463.75a26.25,26.25,0,1,1,0-52.5H507.5ZM218.75,320.25a17.5,17.5,0,0,1-17.5-17.5v-14h-14a17.5,17.5,0,1,1,0-35h14v-14a17.5,17.5,0,1,1,35,0v14h14a17.5,17.5,0,1,1,0,35h-14v14a17.5,17.5,0,0,1-17.5,17.5Z" transform="translate(-122.509 -122.499)"/>
</svg>
