<svg xmlns="http://www.w3.org/2000/svg" width="672" height="560" viewBox="0 0 672 560">
  <g id="noun-pin-code-324190" transform="translate(-14)">
    <path id="Path_1" data-name="Path 1" d="M260.4,246.4h168a11.231,11.231,0,0,0,11.2-11.2l0-134.4a11.231,11.231,0,0,0-11.2-11.2h-22.4l0-28a61.6,61.6,0,1,0-123.2,0v28H260.4a11.231,11.231,0,0,0-11.2,11.2V235.2A11.225,11.225,0,0,0,260.4,246.4ZM305.2,61.6a39.2,39.2,0,1,1,78.4,0v28H305.2ZM271.6,112H417.2V224H271.6Z"/>
    <path id="Path_2" data-name="Path 2" d="M562.8,313.6H137.2a123.2,123.2,0,0,0,0,246.4H562.8a123.2,123.2,0,0,0,0-246.4Zm0,224H137.2a100.8,100.8,0,1,1,0-201.6H562.8a100.8,100.8,0,0,1,0,201.6Z"/>
    <path id="Path_3" data-name="Path 3" d="M188.16,404.43,159.6,418.653V380.8a11.2,11.2,0,1,0-22.4,0v37.855l-28.559-14.336a11.194,11.194,0,1,0-9.969,20.047l32.816,16.352-25.652,34.16a11.235,11.235,0,0,0,2.238,15.68A10.793,10.793,0,0,0,114.8,492.8a11.349,11.349,0,0,0,8.961-4.48L148.4,455.5l24.641,32.816A11.355,11.355,0,0,0,182,492.8a10.794,10.794,0,0,0,6.719-2.238,11.228,11.228,0,0,0,2.238-15.68l-25.535-34.047,32.816-16.352A11.222,11.222,0,1,0,188.16,404.43Z"/>
    <path id="Path_4" data-name="Path 4" d="M322.56,404.43,294,418.653V380.8a11.2,11.2,0,0,0-22.4,0v37.855l-28.559-14.336a11.194,11.194,0,1,0-9.969,20.047l32.816,16.352-25.652,34.16a11.235,11.235,0,0,0,2.238,15.68,10.794,10.794,0,0,0,6.719,2.238,11.349,11.349,0,0,0,8.961-4.48L282.8,455.5l24.641,32.816a11.355,11.355,0,0,0,8.961,4.48,10.794,10.794,0,0,0,6.719-2.238,11.228,11.228,0,0,0,2.238-15.68l-25.535-34.047,32.816-16.352A11.219,11.219,0,1,0,322.56,404.43Z"/>
    <path id="Path_5" data-name="Path 5" d="M456.96,404.43,428.4,418.653V380.8a11.2,11.2,0,0,0-22.4,0v37.855l-28.559-14.336a11.194,11.194,0,0,0-9.969,20.047l32.816,16.352-25.648,34.16a11.235,11.235,0,0,0,2.238,15.68,10.794,10.794,0,0,0,6.719,2.238,11.349,11.349,0,0,0,8.961-4.48L417.2,455.5l24.641,32.816a11.355,11.355,0,0,0,8.961,4.48,10.794,10.794,0,0,0,6.719-2.238,11.228,11.228,0,0,0,2.238-15.68l-25.535-34.047,32.816-16.352a11.219,11.219,0,1,0-10.078-20.047Z"/>
    <path id="Path_6" data-name="Path 6" d="M591.36,404.43,562.8,418.653V380.8a11.2,11.2,0,1,0-22.4,0v37.855l-28.559-14.336a11.194,11.194,0,0,0-9.969,20.047l32.816,16.352-25.652,34.16a11.235,11.235,0,0,0,2.238,15.68A10.794,10.794,0,0,0,518,492.794a11.349,11.349,0,0,0,8.961-4.48L551.6,455.5l24.641,32.816a11.355,11.355,0,0,0,8.961,4.48,10.794,10.794,0,0,0,6.719-2.238,11.228,11.228,0,0,0,2.238-15.68l-25.535-34.047,32.816-16.352A11.219,11.219,0,1,0,591.36,404.43Z"/>
  </g>
</svg>
