<svg xmlns="http://www.w3.org/2000/svg" width="529.424" height="532.129" viewBox="0 0 529.424 532.129">
  <g id="noun-money-3619770" transform="translate(-84.565 -14.616)">
    <path id="Path_11" data-name="Path 11" d="M575.32,291.71a35.007,35.007,0,0,0-33.25.875l-87.812,50.652a34.813,34.813,0,0,0-11.008-19.484A35.551,35.551,0,0,0,419.914,315h-71.4a8.759,8.759,0,0,1-6.238-2.625l-2.1-2.1A43.947,43.947,0,0,0,309.313,297.5H242.024c-1.32,0-2.625.086-4.375.219a43.754,43.754,0,0,0-26.59,12.582l-33.645,33.645-6.895-6.895a8.749,8.749,0,0,0-12.363,0L90.126,405.024a8.751,8.751,0,0,0,0,12.371l123.68,123.79a8.756,8.756,0,0,0,12.375,0l68.059-68.059h0a8.744,8.744,0,0,0,0-12.371l-8.18-8.18,12.469-12.445a8.758,8.758,0,0,1,6.238-2.625h114.62a43.174,43.174,0,0,0,21.875-5.9l135.8-78.4a34.654,34.654,0,0,0,17.5-30.328,35.179,35.179,0,0,0-4.672-17.5,34.178,34.178,0,0,0-14.57-13.668ZM219.99,522.62,108.67,411.25l55.684-55.613,111.32,111.3ZM568.31,338.05,432.44,416.5a25.752,25.752,0,0,1-13.055,3.5H304.765a26.13,26.13,0,0,0-18.609,7.727L273.687,440.2,189.808,356.32l33.645-33.645a26.156,26.156,0,0,1,15.812-7.523c.961-.078,1.863-.148,2.766-.148h67.285a26.366,26.366,0,0,1,18.488,7.672l2.1,2.1a26.133,26.133,0,0,0,18.609,7.727h71.4a17.915,17.915,0,0,1,11.758,4.375,17.18,17.18,0,0,1,5.777,11.262,16.689,16.689,0,0,1-1.164,8.051,15.9,15.9,0,0,1-3.922,6.2A17.357,17.357,0,0,1,420,367.5H362.429a8.75,8.75,0,0,0,0,17.5H420a34.748,34.748,0,0,0,24.734-10.266A33.455,33.455,0,0,0,451.573,365l99.207-57.277a17.623,17.623,0,0,1,16.746-.348,16.85,16.85,0,0,1,7.2,6.738,17.718,17.718,0,0,1,2.336,8.75,17.347,17.347,0,0,1-8.75,15.187Z" stroke="#000" stroke-width="6"/>
    <path id="Path_12" data-name="Path 12" d="M446.25,201.25c-14.227,0-26.25-8.016-26.25-17.5a8.75,8.75,0,0,0-17.5,0c0,16.906,15.059,31.035,35,34.293V227.5a8.75,8.75,0,0,0,17.5,0v-9.457c19.941-3.254,35-17.387,35-34.293,0-19.3-19.625-35-43.75-35-14.227,0-26.25-8.016-26.25-17.5s12.023-17.5,26.25-17.5,26.25,8.016,26.25,17.5a8.75,8.75,0,0,0,17.5,0c0-16.906-15.059-31.035-35-34.293V87.5a8.75,8.75,0,0,0-17.5,0v9.457c-19.941,3.254-35,17.387-35,34.293,0,19.3,19.625,35,43.75,35,14.227,0,26.25,8.016,26.25,17.5S460.477,201.25,446.25,201.25Z" stroke="#000" stroke-width="6"/>
    <path id="Path_13" data-name="Path 13" d="M608.44,135.31a8.756,8.756,0,0,0-12.375,0l-10.414,10.414h0A140,140,0,0,0,314.629,109.7a8.75,8.75,0,1,0,16.441,5.969,122.5,122.5,0,0,1,236.952,28.707l-9.09-9.09a8.75,8.75,0,1,0-12.375,12.371l24.754,24.754a8.756,8.756,0,0,0,12.375,0l24.754-24.754a8.752,8.752,0,0,0,0-12.348Z" stroke="#000" stroke-width="6"/>
    <path id="Path_14" data-name="Path 14" d="M296.43,179.69l10.414-10.414h0A140,140,0,0,0,578.5,203.539a8.751,8.751,0,1,0-16.531-5.75,122.5,122.5,0,0,1-237.5-27.16l9.09,9.09a8.751,8.751,0,0,0,12.375-12.371l-24.754-24.754a8.756,8.756,0,0,0-12.375,0l-24.754,24.754a8.751,8.751,0,0,0,12.375,12.371Z" stroke="#000" stroke-width="6"/>
  </g>
</svg>
